<?xml version="1.0" encoding="UTF-8" standalone="no"?>
<!-- Created with Inkscape (http://www.inkscape.org/) -->

<svg
   xmlns:dc="http://purl.org/dc/elements/1.1/"
   xmlns:cc="http://creativecommons.org/ns#"
   xmlns:rdf="http://www.w3.org/1999/02/22-rdf-syntax-ns#"
   xmlns:svg="http://www.w3.org/2000/svg"
   xmlns="http://www.w3.org/2000/svg"
   xmlns:sodipodi="http://sodipodi.sourceforge.net/DTD/sodipodi-0.dtd"
   xmlns:inkscape="http://www.inkscape.org/namespaces/inkscape"
   width="100mm"
   height="100mm"
   viewBox="0 0 100 100"
   version="1.1"
   id="svg8"
   sodipodi:docname="logo.svg"
   inkscape:export-filename="/media/lukas/Data/Dokumenty/Programovani_Kodovani_Vsehochut/projects-bigger/jidelna/logo.png"
   inkscape:export-xdpi="130.048"
   inkscape:export-ydpi="130.048"
   inkscape:version="0.92.5 (2060ec1f9f, 2020-04-08)">
  <defs
     id="defs2" />
  <sodipodi:namedview
     id="base"
     pagecolor="#ffffff"
     bordercolor="#666666"
     borderopacity="1.0"
     inkscape:pageopacity="0.0"
     inkscape:pageshadow="2"
     inkscape:zoom="0.98994949"
     inkscape:cx="74.160778"
     inkscape:cy="195.22393"
     inkscape:document-units="mm"
     inkscape:current-layer="layer1"
     showgrid="false"
     inkscape:window-width="1920"
     inkscape:window-height="1019"
     inkscape:window-x="0"
     inkscape:window-y="0"
     inkscape:window-maximized="1" />
  <metadata
     id="metadata5">
    <rdf:RDF>
      <cc:Work
         rdf:about="">
        <dc:format>image/svg+xml</dc:format>
        <dc:type
           rdf:resource="http://purl.org/dc/dcmitype/StillImage" />
        <dc:title></dc:title>
      </cc:Work>
    </rdf:RDF>
  </metadata>
  <g
     inkscape:label="Vrstva 1"
     inkscape:groupmode="layer"
     id="layer1"
     transform="translate(0,-197)">
    <path
       style="fill:#000000;stroke-width:0.34317401"
       d="m 26.121289,286.49363 c -0.960259,-0.568 -1.189815,-0.99283 -1.195855,-2.2131 -0.007,-1.41947 0.977277,-2.27753 2.450658,-2.13638 0.856944,0.0821 1.173284,0.29097 1.249603,0.82505 0.08789,0.61506 -0.04195,0.69396 -0.927994,0.56391 -0.8759,-0.12854 -1.063075,-0.0201 -1.249809,0.72387 -0.120793,0.4813 -0.118757,1.03828 0.0045,1.23775 0.395298,0.63961 1.853384,0.40376 2.265594,-0.36647 0.366098,-0.68406 3.398006,-13.74638 3.237861,-13.94961 -0.04068,-0.0516 -0.318446,-6e-5 -0.617258,0.11466 -0.880481,0.33786 -1.684336,1.85686 -1.736768,3.28185 -0.04973,1.35124 -0.442836,1.6569 -1.181282,0.91844 -1.773557,-1.77355 1.91382,-5.73497 5.359483,-5.75778 0.924006,-0.006 1.105404,0.10557 0.963003,0.59303 -0.0965,0.3303 -0.742853,3.30304 -1.436339,6.60608 -1.43617,6.84043 -1.938591,8.32299 -3.072262,9.0658 -1.107989,0.72598 -3.279262,0.9862 -4.11315,0.49295 z m 8.476399,-3.79343 c -0.569305,-0.56929 -0.515378,-2.25471 0.180279,-5.63429 l 0.592071,-2.87641 h 1.301912 c 1.174064,0 1.284454,0.0759 1.124037,0.77214 -1.528012,6.63279 -1.523005,6.51678 -0.275088,6.37152 0.747092,-0.0869 0.990805,-0.34773 1.224103,-1.30971 0.809454,-3.33763 1.006162,-3.76923 2.192639,-4.81097 1.100223,-0.966 1.433496,-1.07931 2.741155,-0.93192 1.214427,0.13689 1.48901,0.065 1.490566,-0.3906 10e-4,-0.30712 0.158161,-1.12092 0.349123,-1.80846 0.301846,-1.08667 0.503419,-1.26828 1.54237,-1.38958 0.657338,-0.0768 1.195153,-0.0215 1.195153,0.1227 0,0.14425 -0.463275,2.43506 -1.029522,5.09069 -0.566233,2.65564 -1.029522,4.9882 -1.029522,5.18347 0,0.19528 0.347476,0.3057 0.772152,0.24539 0.534158,-0.0759 0.79992,-0.37408 0.862282,-0.96759 0.181572,-1.72821 0.855084,-3.63033 1.665718,-4.70432 1.429748,-1.89423 4.555306,-2.18347 5.098556,-0.47183 0.467361,1.47253 -1.695018,4.14663 -3.353122,4.14663 -0.676223,0 -0.90467,0.6767 -0.550281,1.63007 0.41631,1.11994 2.075439,1.03541 3.367922,-0.17158 0.872451,-0.81476 1.132481,-1.52491 1.90266,-5.19623 0.490656,-2.33888 0.963477,-4.36798 1.050716,-4.50914 0.08729,-0.14116 0.695548,-0.31933 1.351822,-0.39595 1.056176,-0.12334 1.175024,-0.0588 1.034905,0.56264 -0.863307,3.8281 -1.878575,8.95176 -1.878575,9.48034 0,0.92634 1.233702,0.8509 1.852141,-0.11323 0.272404,-0.42469 0.76555,-2.04618 1.095879,-3.60334 l 0.600605,-2.83118 h 1.334507 c 0.882983,0 1.255582,0.12763 1.101248,0.37741 -0.169613,0.27443 -0.04086,0.27443 0.471952,0 1.009328,-0.54019 2.652179,-0.46554 3.157595,0.14344 0.422535,0.50913 0.396114,1.13134 -0.223259,5.25764 -0.213803,1.4243 -0.187889,1.48378 0.59792,1.37269 0.660606,-0.0934 0.938717,-0.48559 1.420786,-2.00357 1.399631,-4.40734 2.227153,-5.08861 6.206341,-5.10937 2.360826,-0.013 2.651024,0.0542 2.505484,0.57445 -0.743876,2.65911 -1.30583,6.32885 -1.013854,6.62082 0.468282,0.4683 1.413989,0.0451 1.664745,-0.74491 0.114269,-0.36006 0.351795,-0.65465 0.527816,-0.65465 0.416102,0 0.403586,0.22496 -0.06329,1.13788 -0.978756,1.91384 -3.673205,2.66181 -4.438365,1.23209 l -0.384584,-0.71861 -0.764927,0.71861 c -0.977939,0.91871 -2.521813,0.91934 -3.498909,0.001 l -0.763409,-0.7172 -0.717196,0.7172 c -0.798066,0.79805 -2.727653,0.97168 -3.393953,0.30537 -0.522563,-0.52256 -0.522563,-1.92762 2.6e-5,-4.45774 0.321703,-1.55754 0.320873,-2.08485 -0.0039,-2.40953 -0.785796,-0.7858 -1.69005,0.74193 -2.37875,4.01893 l -0.649114,3.08856 -1.142092,0.11129 c -0.659153,0.0642 -1.255102,-0.0716 -1.40932,-0.3211 -0.214296,-0.34673 -0.369902,-0.34713 -0.785705,-0.003 -0.285179,0.23667 -1.014918,0.38117 -1.621632,0.32111 -0.956641,-0.0947 -1.298475,-0.37958 -1.917797,-1.59821 -0.03256,-0.0639 -0.647454,0.28349 -1.366556,0.77214 -1.479088,1.00507 -3.688614,1.1933 -4.765348,0.40597 -0.566895,-0.41452 -0.791244,-0.41452 -1.592838,0 -1.286841,0.66546 -2.123195,0.60426 -2.859367,-0.2092 l -0.625949,-0.69167 -0.736249,0.69167 c -0.943801,0.88664 -2.633047,0.89414 -3.428467,0.0152 -0.609205,-0.67316 -0.616378,-0.67316 -1.472162,0 -0.958742,0.75415 -2.812258,0.89656 -3.444174,0.26464 z m 8.766577,-1.73302 c 0.518982,-0.65497 1.445196,-5.19425 1.126929,-5.52297 -0.564249,-0.58276 -1.569919,-0.0218 -2.173066,1.21209 -0.719375,1.4717 -1.098771,3.45039 -0.807249,4.21009 0.244465,0.63704 1.379566,0.69878 1.853386,0.10078 z m 30.275456,-0.2365 c 0.195879,-0.36601 0.570865,-1.68983 0.833307,-2.94183 0.407762,-1.94523 0.407632,-2.30304 -0.001,-2.45982 -0.84865,-0.32565 -1.52163,0.19002 -2.200836,1.68642 -0.65355,1.43988 -0.899235,3.70334 -0.450668,4.15192 0.456751,0.45675 1.47128,0.2132 1.819093,-0.43669 z m -21.443526,-2.85206 c 1.002453,-0.86982 1.376764,-2.83118 0.540319,-2.83118 -0.508425,0 -1.483355,1.45747 -1.893815,2.83118 -0.132647,0.44393 -0.08314,0.77214 0.116474,0.77214 0.190937,0 0.747612,-0.34747 1.237048,-0.77214 z m -15.608098,-5.24708 c 0,-0.10195 0.312002,-0.79682 0.693317,-1.54428 0.538698,-1.05593 0.89192,-1.35903 1.583758,-1.35903 0.843307,0 0.863865,0.0408 0.388644,0.77215 -0.27597,0.42467 -0.716949,1.1196 -0.979949,1.54428 -0.414027,0.66857 -1.68577,1.11131 -1.68577,0.58688 z m 9.523081,-5.87134 -0.943736,-0.16612 v -10.31663 -10.31662 l 1.240524,-1.37311 c 0.68228,-0.75521 1.611372,-2.18316 2.064634,-3.17322 0.814409,-1.77889 0.823047,-1.91087 0.732735,-11.19434 -0.08885,-9.13498 -0.110378,-9.39422 -0.777729,-9.39422 -0.665392,0 -0.689154,0.25938 -0.778143,8.49356 -0.08846,8.18329 -0.116474,8.49355 -0.766146,8.49355 -0.649724,0 -0.677714,-0.31026 -0.766146,-8.49355 -0.08898,-8.23418 -0.112713,-8.49356 -0.778131,-8.49356 -0.665392,0 -0.689154,0.25938 -0.778143,8.49356 -0.08872,8.20895 -0.114529,8.49355 -0.772139,8.49355 -0.659114,0 -0.680515,-0.2545 -0.685613,-8.15038 -0.0026,-4.48271 -0.141727,-8.36592 -0.308538,-8.62936 -0.166799,-0.26343 -0.550514,-0.38411 -0.852685,-0.26815 -0.48308,0.18537 -0.549385,1.22692 -0.549385,8.62936 v 8.41853 H 40.540592 39.68866 l -0.09183,-8.49355 c -0.08898,-8.23418 -0.112712,-8.49356 -0.778143,-8.49356 -0.665989,0 -0.689089,0.25961 -0.778831,8.75093 -0.08418,7.96559 -0.03009,8.95661 0.602927,11.04264 0.539359,1.77748 1.049781,2.64608 2.274728,3.87101 l 1.579309,1.57932 -0.25252,9.94174 c -0.138886,5.46796 -0.315127,9.94174 -0.39164,9.94174 -0.07653,0 -1.353275,-0.46823 -2.837226,-1.04049 -6.952767,-2.68127 -12.691453,-8.02777 -15.954808,-14.86445 -2.303343,-4.82546 -2.774075,-7.05129 -2.76906,-13.09326 0.0036,-4.34027 0.128173,-5.5782 0.794234,-7.89301 3.035169,-10.54827 11.351754,-18.61142 21.773464,-21.10996 3.888513,-0.93225 10.336647,-0.93225 14.225173,0 10.421694,2.49854 18.738286,10.56169 21.773453,21.10996 1.064879,3.70082 1.145244,11.74776 0.154244,15.44283 -1.853776,6.91193 -6.39008,13.43397 -12.054403,17.33114 -1.802244,1.23996 -5.850992,3.2932 -7.123747,3.61264 l -0.939612,0.23583 v -2.91825 c 0,-2.4682 0.156864,-3.28687 1.017136,-5.3085 0.559437,-1.31465 1.443535,-3.76306 1.964658,-5.44092 0.915448,-2.94745 0.947135,-3.30615 0.936097,-10.6005 -0.01297,-8.38582 -0.32841,-10.54596 -2.197594,-15.03596 -1.077979,-2.58943 -3.430775,-5.72607 -4.295107,-5.72607 -0.675237,0 -0.717779,2.46978 -0.434286,25.21185 0.145319,11.6564 0.123477,20.36456 -0.05136,20.53944 -0.333351,0.33335 -8.211169,0.62062 -9.722786,0.35456 z"
       id="path21"
       inkscape:connector-curvature="0" />
  </g>
</svg>
