<?xml version="1.0" encoding="UTF-8" standalone="no"?>
<!-- Created with Inkscape (http://www.inkscape.org/) -->

<svg
   xmlns:dc="http://purl.org/dc/elements/1.1/"
   xmlns:cc="http://creativecommons.org/ns#"
   xmlns:rdf="http://www.w3.org/1999/02/22-rdf-syntax-ns#"
   xmlns:svg="http://www.w3.org/2000/svg"
   xmlns="http://www.w3.org/2000/svg"
   xmlns:sodipodi="http://sodipodi.sourceforge.net/DTD/sodipodi-0.dtd"
   xmlns:inkscape="http://www.inkscape.org/namespaces/inkscape"
   width="100mm"
   height="100mm"
   viewBox="0 0 100 100"
   version="1.1"
   id="svg8"
   sodipodi:docname="logosimp.svg"
   inkscape:export-filename="/media/lukas/Data/Dokumenty/Programovani_Kodovani_Vsehochut/projects-bigger/jidelna/logo.png"
   inkscape:export-xdpi="130.048"
   inkscape:export-ydpi="130.048"
   inkscape:version="0.92.5 (2060ec1f9f, 2020-04-08)">
  <defs
     id="defs2" />
  <sodipodi:namedview
     id="base"
     pagecolor="#ffffff"
     bordercolor="#666666"
     borderopacity="1.0"
     inkscape:pageopacity="0.0"
     inkscape:pageshadow="2"
     inkscape:zoom="0.35"
     inkscape:cx="-193.78299"
     inkscape:cy="412.55244"
     inkscape:document-units="mm"
     inkscape:current-layer="layer1"
     showgrid="false"
     inkscape:window-width="1920"
     inkscape:window-height="1019"
     inkscape:window-x="0"
     inkscape:window-y="0"
     inkscape:window-maximized="1" />
  <metadata
     id="metadata5">
    <rdf:RDF>
      <cc:Work
         rdf:about="">
        <dc:format>image/svg+xml</dc:format>
        <dc:type
           rdf:resource="http://purl.org/dc/dcmitype/StillImage" />
        <dc:title></dc:title>
      </cc:Work>
    </rdf:RDF>
  </metadata>
  <g
     inkscape:label="Vrstva 1"
     inkscape:groupmode="layer"
     id="layer1"
     transform="translate(0,-197)">
    <path
       style="fill:#000000;stroke-width:0.34317401"
       d="m 26.121289,286.49363 c -4.035056,-1.78561 1.995211,-6.90097 2.405634,-2.96306 -3.136872,-1.32601 -2.35147,4.47187 0.191063,1.59769 1.285073,-4.59334 2.39262,-9.25502 3.237861,-13.94961 -2.876684,-0.34525 -2.000452,7.60901 -3.994567,3.12696 0.258485,-2.75641 4.890846,-5.7604 6.781745,-3.97676 -1.318051,4.94373 -1.701498,10.19215 -3.752254,14.90391 -1.018099,1.41919 -3.294267,1.83578 -4.869482,1.26087 z m 8.476399,-3.79343 c -0.968414,-2.48583 0.246705,-5.22143 0.620475,-7.77286 0.447893,-1.84519 4.185549,-0.39486 2.188253,1.72736 -0.566627,1.51732 -1.644235,6.52865 1.153957,3.96701 0.39579,-3.23693 2.371087,-7.38773 6.318533,-6.31427 -0.180508,-1.57158 2.211629,-5.29429 3.295868,-3.00999 -0.573808,3.31065 -1.546889,6.61686 -1.916881,9.92054 3.114313,-0.0191 1.29216,-6.17582 4.945873,-6.84928 5.352842,-1.80681 3.062807,5.42828 -0.622836,5.42587 0.447597,4.50875 5.749476,-0.0914 5.114825,-2.95133 0.418105,-2.14345 1.015223,-7.97651 3.704539,-5.58638 -0.08048,3.13827 -2.824742,7.65824 -1.184419,10.13265 2.252234,-1.08032 2.000463,-4.14795 2.665775,-6.31058 0.0317,-1.91317 2.642164,-0.31281 3.096401,-0.51207 4.428668,-1.98091 3.476634,3.70482 2.827058,6.23206 2.686851,1.61837 2.089489,-5.41847 4.988977,-6.10756 2.16142,-0.6035 7.503124,-1.56718 5.335535,2.22604 -1.132068,2.95647 -0.437407,6.0636 1.991476,3.33259 -0.375058,2.79592 -4.314609,3.63393 -5.330377,1.56068 -1.226901,1.71577 -3.704886,1.54572 -4.882579,-0.1335 -1.468566,2.4094 -5.764434,1.5518 -4.40508,-1.74474 1.207654,-2.2407 -0.106076,-6.5461 -1.536971,-2.20198 -0.531849,1.70357 -0.812482,3.47048 -1.200836,5.20951 -2.236189,-0.17434 -3.881616,0.097 -6.044142,-0.26933 -1.416121,-2.82266 -4.904799,2.55922 -7.339624,-0.27564 -1.779092,1.07889 -3.821842,0.053 -4.992169,-0.39589 -2.134184,2.78048 -4.526227,-1.39715 -6.692009,1.01683 -0.687952,0.12094 -1.5356,0.17239 -2.099622,-0.31574 z m 8.766577,-1.73302 c 0.810488,-1.44431 2.405346,-7.83917 -0.802737,-4.74113 -0.853839,1.17562 -2.422942,6.54558 0.802737,4.74113 z m 30.275456,-0.2365 c 0.988192,-1.69674 1.996886,-7.89079 -1.113763,-4.23068 -0.836703,1.16328 -2.023865,6.84528 1.113763,4.23068 z m -21.443526,-2.85206 c 1.842883,-1.20464 0.562614,-4.37642 -0.707961,-1.49948 -0.608229,1.0892 -1.527462,3.52744 0.707961,1.49948 z m -15.608098,-5.24708 c -0.344088,-2.12691 4.375802,-4.36659 2.170881,-1.35902 -0.304741,0.64646 -1.476829,2.17271 -2.170881,1.35902 z m 9.523081,-5.87134 c -1.651595,0.14056 -0.690677,-1.91169 -0.943736,-2.945 0,-5.95145 0,-11.90291 0,-17.85437 2.490003,-2.47728 4.504361,-5.73129 4.072001,-9.38898 -0.143356,-5.17944 0.23249,-10.42969 -0.421273,-15.56267 -2.239088,0.75953 -0.561586,5.99011 -1.168707,8.31032 -0.597197,2.33577 1.048686,7.48975 -1.147523,8.31721 -0.76523,-5.37161 -0.07641,-10.88792 -0.647736,-16.29448 -2.119305,-1.19102 -0.869813,4.97546 -1.277213,6.52493 -0.417296,3.18617 0.663931,7.24422 -0.788233,9.94589 -1.43906,-2.49921 -0.308526,-6.38889 -0.689854,-9.39285 -0.619408,-2.14885 1.122458,-7.02742 -1.319285,-7.53464 -0.7062,4.01693 -0.277455,8.19022 -0.387082,12.28029 0,1.54907 0,3.09813 0,4.6472 -1.51031,0.35065 -2.035498,-0.29453 -1.72319,-1.78632 -0.115875,-4.89387 0.05979,-9.8055 -0.335486,-14.6845 -1.931357,-1.43182 -0.970541,4.10352 -1.26209,5.42069 0.243341,5.16256 -0.932396,10.64675 1.204789,15.53954 0.529137,1.73878 2.719359,2.57384 3.21018,4.16423 -0.199377,6.49564 -0.23348,13.0001 -0.63408,19.48663 -9.044697,-2.60788 -16.602669,-9.56661 -19.903325,-18.38737 -2.116251,-5.08443 -1.79299,-10.76064 -1.406589,-16.1336 2.363271,-13.14458 14.470039,-24.06723 27.979726,-24.15481 9.313456,-0.68325 18.712459,3.47473 24.550261,10.74447 4.468331,5.36519 6.969409,12.31146 6.635718,19.31394 0.384272,9.9533 -5.317409,19.60377 -13.522057,24.99826 -2.190834,1.11166 -5.116765,3.23505 -7.292022,3.15185 -0.05115,-3.13474 -0.112455,-6.36915 1.486843,-9.19707 1.669854,-3.94004 2.755588,-8.13495 2.431542,-12.44373 0.04783,-6.74965 0.328966,-14.02307 -3.497846,-19.94032 -0.988374,-2.46161 -4.284074,-4.75267 -3.543972,-0.34161 -0.240446,14.279 0.512724,28.57024 0.06298,42.84231 -3.177495,0.51702 -6.508717,0.52488 -9.722738,0.35456 z"
       id="path21"
       inkscape:connector-curvature="0" />
  </g>
</svg>
